<svg version="1.1" xmlns="http://www.w3.org/2000/svg" viewBox="0 0 3422.3828907079087 2216.7007962174625" width="3422.3828907079087" height="2216.7007962174625">
  <!-- svg-source:excalidraw -->
  
  <defs>
    <style>
      @font-face {
        font-family: "Virgil";
        src: url("https://excalidraw.com/Virgil.woff2");
      }
      @font-face {
        font-family: "Cascadia";
        src: url("https://excalidraw.com/Cascadia.woff2");
      }
    </style>
  </defs>
  <g stroke-linecap="round"><g transform="translate(293.7165088719719 1249.8675442643375) rotate(0 1353.8236242204907 1.3909703959872104)"><path d="M1.41 -0.39 C784.71 -0.32, 1567.84 0.62, 2706.9 1.99 M0.2 0.15 C929.79 1.62, 1858.77 3.4, 2707.44 3.16" stroke="#000000" stroke-width="4" fill="none"></path></g></g><g stroke-linecap="round"><g transform="translate(294.3830127782221 1523.2008013037257) rotate(0 1353.5676405861973 3.076314089016819)"><path d="M1.52 0.24 C967.25 -1.83, 1936.67 -1.69, 2707.07 2.96 M0.06 0.78 C895.47 8.35, 1790.74 9.8, 2706.86 2.3" stroke="#000000" stroke-width="4" fill="none"></path></g></g><g stroke-linecap="round"><g transform="translate(445.7165292170239 1252.5343228287907) rotate(0 -2.724873264312862 135.4475697100621)"><path d="M0.31 2.62 C0.24 82.59, -0.49 170.61, -5.76 270.33 M-1.22 0.56 C-4.75 56.64, -3.4 112.82, -4.42 269.4" stroke="#000000" stroke-width="4" fill="none"></path></g></g><g stroke-linecap="round"><g transform="translate(658.3831043309563 1253.867610385757) rotate(0 -2.96494738713875 136.58315048226643)"><path d="M-0.57 1.66 C-7.36 91.84, -7.55 184.54, -7.77 272.4 M0.37 0.77 C3.24 59.83, 2.31 118.78, -5.66 268.34" stroke="#000000" stroke-width="4" fill="none"></path></g></g><g stroke-linecap="round"><g transform="translate(888.3832060562163 1249.200862338882) rotate(0 -2.9229907434112192 135.18396822282625)"><path d="M1.54 1.91 C-5.71 88.22, -5.21 174.33, -7.39 269.27 M0.89 0.37 C-0.73 102.11, -1.67 204.63, -4.12 270" stroke="#000000" stroke-width="4" fill="none"></path></g></g><g stroke-linecap="round"><g transform="translate(1085.7164529230786 1256.2010098405099) rotate(0 -2.658048043823328 134.01344541920366)"><path d="M2.53 0.37 C-4.88 64.51, -8.8 129.9, -7.65 267.36 M-0.12 0.08 C-1.75 83.78, -4.29 169.06, -4.01 267.95" stroke="#000000" stroke-width="4" fill="none"></path></g></g><g stroke-linecap="round"><g transform="translate(1298.3830280370112 1257.5342973974757) rotate(0 -3.4668653866351633 135.02283027453632)"><path d="M0.37 0.32 C0.16 53.64, -0.73 109.52, -7.31 269.72 M0.08 1.33 C-4.68 72.24, -4.98 144.91, -6.72 268.57" stroke="#000000" stroke-width="4" fill="none"></path></g></g><g stroke-linecap="round"><g transform="translate(1927.716460552473 1253.0343279150534) rotate(0 -2.604995103133433 134.22342228671778)"><path d="M-2.59 -1.93 C-1.04 101.28, -1.45 202.11, -2.72 270.38 M-0.41 0.91 C-4.91 84.67, -5.79 166.79, -3.81 270.27" stroke="#000000" stroke-width="4" fill="none"></path></g></g><g stroke-linecap="round"><g transform="translate(2157.716562277734 1248.3675798681788) rotate(0 -1.5462579422321596 134.17582499105458)"><path d="M-1.93 -1.31 C-3.04 95.58, -5.85 193.24, -4.29 269.66 M0.91 0.33 C3.08 59.02, 0.47 117.37, -4.4 269.41" stroke="#000000" stroke-width="4" fill="none"></path></g></g><g stroke-linecap="round"><g transform="translate(2355.049809144596 1255.3677273698067) rotate(0 -2.459557224048922 134.83433639483098)"><path d="M-1.31 -0.47 C-4.71 74.98, -3.9 153.85, -5.01 266.67 M0.33 1.02 C-2.01 100.86, -3.59 203.49, -5.25 270.14" stroke="#000000" stroke-width="4" fill="none"></path></g></g><g stroke-linecap="round"><g transform="translate(2567.7163842585287 1256.7010149267726) rotate(0 -3.4902667042917983 136.00552229195932)"><path d="M-0.47 0.29 C-5.16 61.15, -3.88 117.43, -8 271.72 M1.02 1.1 C0.55 75.3, 0.47 147.62, -4.53 269.1" stroke="#000000" stroke-width="4" fill="none"></path></g></g><g stroke-linecap="round"><g transform="translate(2797.7164859837885 1252.0342668798976) rotate(0 -2.232795017114313 133.5846545815541)"><path d="M0.29 -1.39 C-0.42 65.24, -3.98 125.74, -2.95 268.51 M1.1 -0.44 C0.52 97.43, -2.84 193.75, -5.57 268.56" stroke="#000000" stroke-width="4" fill="none"></path></g></g><g stroke-linecap="round" transform="translate(1501.7163868016596 1388.534333001317) rotate(0 11.999918619791515 13.333333333333258)"><path d="M14.96 0.37 C17.32 0.39, 17.26 1.62, 19.08 3.48 C20.9 5.34, 25.38 8.36, 25.89 11.51 C26.41 14.65, 23.81 19.86, 22.18 22.34 C20.54 24.83, 18.48 25.92, 16.1 26.43 C13.72 26.93, 10.65 26.81, 7.89 25.38 C5.14 23.94, 0.82 20.74, -0.43 17.79 C-1.68 14.84, -0.5 10.02, 0.4 7.66 C1.3 5.31, 1.58 3.61, 4.96 3.64 C8.33 3.68, 17.35 5.61, 20.67 7.88 C23.98 10.15, 24.48 17.27, 24.87 17.28 M16.5 5.17 C19.39 7.11, 25.44 8.18, 26.5 10.17 C27.57 12.17, 24.24 14.52, 22.9 17.14 C21.56 19.77, 20.97 24.43, 18.45 25.92 C15.94 27.42, 10.34 26.89, 7.81 26.12 C5.27 25.35, 4.87 23.99, 3.26 21.3 C1.64 18.62, -1.74 13.32, -1.89 10 C-2.03 6.67, -0.18 3, 2.37 1.34 C4.93 -0.32, 10.83 -0.32, 13.46 0.02 C16.09 0.36, 16.93 2.71, 18.16 3.37 C19.38 4.03, 21.01 3.75, 20.81 4.01" stroke="none" stroke-width="0" fill="#000000"></path><path d="M2.93 4.84 C4.23 2.46, 7.03 0.73, 9.81 0.11 C12.59 -0.51, 17.49 -0.31, 19.6 1.14 C21.72 2.59, 22.14 6.16, 22.5 8.81 C22.85 11.46, 22.48 14.67, 21.73 17.05 C20.98 19.42, 20.16 21.55, 18 23.06 C15.84 24.58, 11.38 26.33, 8.78 26.11 C6.18 25.9, 3.94 23.62, 2.42 21.8 C0.9 19.99, -2.21 18.89, -0.35 15.22 C1.5 11.55, 9.96 1.07, 13.54 -0.22 C17.13 -1.51, 20.96 7.28, 21.16 7.47 M5.52 4.44 C6.31 3.06, 6.37 2.79, 8.1 2.04 C9.82 1.28, 13.33 -0.91, 15.87 -0.08 C18.41 0.76, 22.24 3.75, 23.34 7.07 C24.43 10.4, 23.53 17.29, 22.44 19.89 C21.34 22.49, 18.73 21.9, 16.76 22.66 C14.79 23.41, 12.91 24.3, 10.6 24.41 C8.29 24.52, 4.9 25.41, 2.89 23.3 C0.88 21.18, -1.32 14.91, -1.46 11.73 C-1.59 8.55, 0.99 5.71, 2.07 4.22 C3.15 2.72, 4.91 2.65, 5.05 2.77" stroke="#000000" stroke-width="4" fill="none"></path></g><g stroke-linecap="round" transform="translate(1577.0498422053051 1387.867625644546) rotate(0 11.999918619791515 13.333333333333258)"><path d="M5.65 2.49 C7.36 0.49, 9.01 -0.38, 11.05 0 C13.09 0.38, 15.48 2.7, 17.91 4.77 C20.33 6.85, 24.62 10.02, 25.59 12.45 C26.57 14.87, 25.28 17.26, 23.74 19.32 C22.2 21.39, 18.86 23.68, 16.35 24.84 C13.84 26, 11.22 26.96, 8.69 26.29 C6.16 25.63, 2.82 23.52, 1.16 20.84 C-0.5 18.15, -3.41 13.46, -1.25 10.2 C0.91 6.94, 10.24 2.16, 14.11 1.29 C17.98 0.42, 22.01 5.21, 21.97 4.98 M21.23 1.94 C22.92 3.25, 21.41 8.23, 22.12 10.98 C22.83 13.74, 26.74 16.43, 25.5 18.47 C24.26 20.51, 16.88 21.6, 14.68 23.22 C12.47 24.85, 14.36 28.26, 12.27 28.2 C10.18 28.15, 4.07 25.52, 2.15 22.89 C0.22 20.25, 0.65 15.66, 0.74 12.38 C0.82 9.1, 0.9 5.22, 2.66 3.21 C4.42 1.2, 8.97 0.18, 11.31 0.32 C13.65 0.47, 15.75 3.93, 16.7 4.07 C17.65 4.21, 16.83 1.53, 17.02 1.17" stroke="none" stroke-width="0" fill="#000000"></path><path d="M14 -1.1 C16.49 -0.41, 19.03 3.95, 20.45 6.65 C21.86 9.36, 22.12 12.56, 22.49 15.15 C22.87 17.74, 23.82 20.14, 22.7 22.2 C21.58 24.25, 18.35 27.32, 15.76 27.49 C13.17 27.66, 9.98 25.17, 7.15 23.24 C4.31 21.3, -0.46 18.01, -1.24 15.88 C-2.03 13.75, 1.21 12.8, 2.42 10.46 C3.63 8.12, 2.89 2.16, 6.02 1.84 C9.15 1.51, 18.37 5.72, 21.18 8.49 C23.98 11.27, 22.75 18.43, 22.83 18.48 M13.47 -1.81 C16.55 -1.03, 22.22 2.74, 23.78 5.54 C25.35 8.33, 23.12 11.94, 22.87 14.97 C22.63 18, 24.18 21.58, 22.31 23.71 C20.44 25.84, 14.23 27.95, 11.66 27.75 C9.1 27.55, 8.54 24.7, 6.93 22.5 C5.32 20.31, 3.48 16.97, 2.02 14.58 C0.56 12.19, -2.17 10.21, -1.85 8.16 C-1.54 6.11, 1.5 3.7, 3.89 2.28 C6.28 0.86, 10.58 0.15, 12.47 -0.35 C14.37 -0.84, 15.41 -0.91, 15.27 -0.69" stroke="#000000" stroke-width="4" fill="none"></path></g><g stroke-linecap="round" transform="translate(1661.7165902521792 1388.534333001317) rotate(0 11.999918619791515 13.333333333333258)"><path d="M8.44 1.95 C10.76 1.29, 14.41 1.87, 16.66 2.41 C18.91 2.94, 20.56 2.81, 21.94 5.17 C23.33 7.53, 25.28 13.9, 24.98 16.57 C24.69 19.24, 22.46 19.19, 20.18 21.2 C17.91 23.2, 13.69 28.16, 11.33 28.59 C8.97 29.02, 7.7 25.75, 6.03 23.78 C4.36 21.82, 2.12 19.63, 1.29 16.82 C0.47 14.02, -1.26 9.52, 1.09 6.94 C3.44 4.36, 11.79 1.48, 15.38 1.36 C18.97 1.24, 22.35 6.24, 22.62 6.21 M5.52 -1.57 C7.64 -2.23, 12.52 1.43, 15.18 2.48 C17.84 3.53, 20.08 2.51, 21.48 4.73 C22.88 6.94, 23.95 12.86, 23.58 15.79 C23.21 18.72, 21.12 19.98, 19.26 22.29 C17.41 24.59, 14.41 28.89, 12.45 29.62 C10.48 30.35, 9.11 29.03, 7.46 26.65 C5.81 24.26, 3.58 18.26, 2.53 15.3 C1.47 12.33, 0.52 11.54, 1.15 8.84 C1.78 6.14, 5.22 0.25, 6.31 -0.9 C7.4 -2.06, 6.99 1.81, 7.68 1.89" stroke="none" stroke-width="0" fill="#000000"></path><path d="M9.92 -1.01 C12.08 -2.07, 14.5 -1.23, 16.45 0.54 C18.4 2.31, 20.45 6.94, 21.62 9.62 C22.79 12.3, 23.9 13.95, 23.44 16.64 C22.98 19.32, 20.92 24.25, 18.87 25.73 C16.82 27.21, 13.63 25.9, 11.14 25.51 C8.64 25.13, 5.97 25.2, 3.91 23.44 C1.85 21.68, -0.73 18.3, -1.23 14.94 C-1.73 11.57, -2.28 5.81, 0.9 3.26 C4.08 0.71, 14.07 -0.96, 17.85 -0.35 C21.63 0.27, 23.8 6.37, 23.59 6.93 M5.87 4.07 C8.15 2.71, 9.99 -1.01, 12.87 -0.46 C15.76 0.08, 21.44 5.16, 23.16 7.33 C24.89 9.49, 23.66 10.5, 23.24 12.56 C22.81 14.61, 21.91 16.89, 20.62 19.66 C19.33 22.44, 17.75 28.06, 15.5 29.21 C13.24 30.36, 9.81 28.48, 7.09 26.56 C4.36 24.63, 0.44 20.51, -0.84 17.65 C-2.13 14.79, -1.99 12.18, -0.6 9.37 C0.79 6.57, 6.02 2.49, 7.52 0.82 C9.02 -0.84, 8.6 -1.03, 8.41 -0.62" stroke="#000000" stroke-width="4" fill="none"></path></g><g transform="translate(515.0499235855139 1548.0342109310045) rotate(0 23 95.83333333333326)"><text x="0" y="133.66666666666643" font-family="Virgil, Segoe UI Emoji" font-size="153.3333333333331px" fill="#000000" text-anchor="start" style="white-space: pre;" direction="ltr">1</text></g><g transform="translate(704.7164478368159 1550.0341702409) rotate(0 55 97)"><text x="0" y="136" font-family="Virgil, Segoe UI Emoji" font-size="153.3333333333331px" fill="#000000" text-anchor="start" style="white-space: pre;" direction="ltr">2</text></g><g transform="translate(940.7165088719721 1550.700877597671) rotate(0 52.5 97)"><text x="0" y="136" font-family="Virgil, Segoe UI Emoji" font-size="153.3333333333331px" fill="#000000" text-anchor="start" style="white-space: pre;" direction="ltr">3</text></g><g transform="translate(1138.0498828954096 1556.7009386328273) rotate(0 49.5 97)"><text x="0" y="136" font-family="Virgil, Segoe UI Emoji" font-size="153.3333333333331px" fill="#000000" text-anchor="start" style="white-space: pre;" direction="ltr">4</text></g><g transform="translate(2610.7167123224926 1539.367462884129) rotate(0 267.81958762886643 83.66666666666674)"><text x="0" y="117.33333333333351" font-family="Virgil, Segoe UI Emoji" font-size="132.25658648339058px" fill="#000000" text-anchor="start" style="white-space: pre;" direction="ltr">n_pages</text></g><g transform="translate(2618.0498828954096 1667.3675442643375) rotate(0 363 97)"><text x="0" y="136" font-family="Virgil, Segoe UI Emoji" font-size="153.3333333333331px" fill="#000000" text-anchor="start" style="white-space: pre;" direction="ltr">n_pages-1</text></g><g transform="translate(2619.3828907079087 1836.700836907567) rotate(0 396.5 97)"><text x="0" y="136" font-family="Virgil, Segoe UI Emoji" font-size="153.3333333333331px" fill="#000000" text-anchor="start" style="white-space: pre;" direction="ltr">n_pages-2</text></g><g transform="translate(2620.7163054214507 2012.7007962174625) rotate(0 394 97)"><text x="0" y="136" font-family="Virgil, Segoe UI Emoji" font-size="153.3333333333331px" fill="#000000" text-anchor="start" style="white-space: pre;" direction="ltr">n_pages-3</text></g><g stroke-linecap="round"><g transform="translate(2432.38309415843 1529.8674425390773) rotate(0 -4.5726572705546005 121.2025979327965)"><path d="M-2.07 1.62 C-1.22 80.06, 0.69 163.7, -7.86 240.79" stroke="#000000" stroke-width="4.5" fill="none" stroke-dasharray="1.5 10"></path></g></g><g stroke-linecap="round"><g transform="translate(2249.698394180992 1932.0125407931619) rotate(0 163.76916880724093 0.9891889007584496)"><path d="M0.9 -2.18 C68.48 3.88, 133.32 3.52, 326.64 4.16" stroke="#000000" stroke-width="4.5" fill="none" stroke-dasharray="1.5 10"></path></g><g transform="translate(2249.698394180992 1932.0125407931619) rotate(0 163.76916880724093 0.9891889007584496)"><path d="M326.72 0.17 L315.21 10.75 L313.38 0.65 L326.54 5" stroke="none" stroke-width="0" fill="#000000" fill-rule="evenodd"></path><path d="M327.62 1.77 C325.17 7.43, 319.74 7.02, 310.05 8.59 M314.92 9.82 C311.23 9.05, 312.52 2.17, 314.54 -0.4 M310.27 -2.5 C314.62 0.95, 317.99 0.88, 324.03 2.25 M326.64 4.16 C326.64 4.16, 326.64 4.16, 326.64 4.16" stroke="#000000" stroke-width="4.5" fill="none"></path></g></g><g stroke-linecap="round"><g transform="translate(2255.049516684471 1531.8675137467599) rotate(0 -3.5698987446955925 196.4833336199764)"><path d="M0.2 -0.55 C-6.04 123.22, -6.46 248.52, -7.34 393.51" stroke="#000000" stroke-width="4.5" fill="none" stroke-dasharray="1.5 10"></path></g></g><g stroke-linecap="round"><g transform="translate(2430.372450342855 1764.7584213112377) rotate(0 72.3259335957855 3.575639732819127)"><path d="M-0.94 -2.48 C35.66 2.24, 74.96 3.49, 145.6 9.63" stroke="#000000" stroke-width="4.5" fill="none" stroke-dasharray="1.5 10"></path></g><g transform="translate(2430.372450342855 1764.7584213112377) rotate(0 72.3259335957855 3.575639732819127)"><path d="M144.46 13.28 L130.27 14.25 L134.99 2.2 L148.53 12.15" stroke="none" stroke-width="0" fill="#000000" fill-rule="evenodd"></path><path d="M144.89 7.77 C141.76 11.77, 140.63 12.95, 133.89 17.82 M129.03 15.61 C131.03 9.7, 130.34 6.62, 130.62 2.65 M132.92 0.35 C135.61 4.1, 142.56 8.24, 147.98 10.98 M145.6 9.63 C145.6 9.63, 145.6 9.63, 145.6 9.63" stroke="#000000" stroke-width="4.5" fill="none"></path></g></g><g stroke-linecap="round"><g transform="translate(2007.2278759098635 1560.9223672307944) rotate(0 -4.373274822532949 263.7714903150995)"><path d="M1.14 -1.44 C-0.21 182.34, -3.84 360.8, -9.88 528.99" stroke="#000000" stroke-width="4.5" fill="none" stroke-dasharray="1.5 10"></path></g></g><g stroke-linecap="round"><g transform="translate(2007.0496387547837 2081.8676154720197) rotate(0 279.35223327527433 15.008849636216837)"><path d="M-1.44 0.05 C215 8.31, 426.21 20.49, 560.15 29.97" stroke="#000000" stroke-width="4.5" fill="none" stroke-dasharray="1.5 10"></path></g><g transform="translate(2007.0496387547837 2081.8676154720197) rotate(0 279.35223327527433 15.008849636216837)"><path d="M560.46 29.34 L546.35 36.01 L547.17 20.73 L557.66 27.08" stroke="none" stroke-width="0" fill="#000000" fill-rule="evenodd"></path><path d="M557.44 30.06 C557.65 32.49, 547.83 36.12, 546.25 35.75 M547.48 34.27 C546.02 28.51, 546.25 26.02, 548.55 24.75 M545.51 20.95 C552.43 23.21, 554.87 28.33, 557.72 32.58 M560.15 29.97 C560.15 29.97, 560.15 29.97, 560.15 29.97" stroke="#000000" stroke-width="4.5" fill="none"></path></g></g><g stroke-linecap="round"><g transform="translate(2698.5247107273963 1538.6078346329346) rotate(0 1.9566841794712673 38.68256207803881)"><path d="M1.36 3.41 C1.26 24.83, -1.04 53.17, 3.25 73.96" stroke="#000000" stroke-width="4.5" fill="none" stroke-dasharray="1.5 10"></path></g><g transform="translate(2698.5247107273963 1538.6078346329346) rotate(0 1.9566841794712673 38.68256207803881)"><path d="M5.9 76.63 L-7.83 62.95 L4.58 62.38 L5.86 76.49" stroke="none" stroke-width="0" fill="#000000" fill-rule="evenodd"></path><path d="M4.27 76.51 C0.81 69.47, -4.83 67.7, -5.56 63.18 M-4.19 61.21 C-1.04 63.01, 1.7 61.89, 10.15 62.12 M10.17 57.2 C5.96 63.93, 3.16 71.03, 2.48 70.97 M3.25 73.96 C3.25 73.96, 3.25 73.96, 3.25 73.96" stroke="#000000" stroke-width="4.5" fill="none"></path></g></g><g stroke-linecap="round"><g transform="translate(2991.3831348485337 1384.534317742528) rotate(0 144.0210798018329 0.8937849714284312)"><path d="M-0.38 0.17 C108.72 -1.8, 215.97 2.22, 289.05 1.87 M-1.01 -0.36 C88.18 0.46, 178.14 0.3, 288.06 2.17" stroke="#c92a2a" stroke-width="4" fill="none"></path></g><g transform="translate(2991.3831348485337 1384.534317742528) rotate(0 144.0210798018329 0.8937849714284312)"><path d="M285.46 -1.77 L278.38 10.04 L274.37 -4.49 L286.72 -1.26" stroke="none" stroke-width="0" fill="#c92a2a" fill-rule="evenodd"></path><path d="M287.68 2.33 C284.95 4.35, 280.35 9.4, 275.06 6.84 M287.05 1.8 C282.94 5.39, 279.67 6.1, 274.07 7.13 M273.33 7.04 C274.62 6.86, 274.95 1.25, 272.2 -3.25 M275.34 7.38 C275.11 5.76, 273.63 1.76, 274.1 -3.62 M275.32 -5.11 C279.55 -3.53, 286.6 -2.27, 286.84 0.33 M274.79 -3.4 C280.31 -2.1, 282.6 0.23, 287.47 2.84 M288.06 2.17 C288.06 2.17, 288.06 2.17, 288.06 2.17 M288.06 2.17 C288.06 2.17, 288.06 2.17, 288.06 2.17" stroke="#c92a2a" stroke-width="4" fill="none"></path></g></g><g stroke-linecap="round"><g transform="translate(11.20103101497807 1397.8527225556386) rotate(0 143.47257848018035 0.9969413292386662)"><path d="M-1.2 -2.39 C60.43 -0.11, 126.47 -1.95, 286.68 4.38 M-0.72 0.07 C79.06 -1.13, 159.05 -0.09, 288.15 4.35" stroke="#c92a2a" stroke-width="4" fill="none"></path></g><g transform="translate(11.20103101497807 1397.8527225556386) rotate(0 143.47257848018035 0.9969413292386662)"><path d="M286.2 2.41 L271.31 10.39 L275.62 -1.26 L284.81 5.27" stroke="none" stroke-width="0" fill="#c92a2a" fill-rule="evenodd"></path><path d="M286.95 1.97 C283.17 8.71, 283.84 7.43, 272.69 11.29 M287.43 4.42 C283.68 6.88, 280.19 8.63, 274.15 11.26 M271.98 7.88 C273.21 6.1, 273.81 6.09, 272.79 -3.8 M274.94 9.42 C275.3 7.89, 274.09 4.19, 275.91 -2.8 M276.01 0.24 C277.03 -0.36, 284.79 -1.26, 288.7 3.21 M274.91 -1.01 C278.91 -1.71, 282.78 2.3, 288.27 5.76 M288.15 4.35 C288.15 4.35, 288.15 4.35, 288.15 4.35 M288.15 4.35 C288.15 4.35, 288.15 4.35, 288.15 4.35" stroke="#c92a2a" stroke-width="4" fill="none"></path></g></g><g stroke-linecap="round"><g transform="translate(420.6730727008578 25.170780141316214) rotate(0 1185.6059759527438 -6.095442422682854)"><path d="M0.37 -0.16 C781.62 2.5, 1561.69 1.04, 2370.42 -5.55 M0.44 -0.77 C892.1 -14.84, 1784.97 -17.47, 2370.85 -6.54" stroke="#000000" stroke-width="4" fill="none"></path></g></g><g stroke-linecap="round"><g transform="translate(420.2032270154955 286.669677206617) rotate(0 1178.8199599087236 -5.488786028026169)"><path d="M-0.16 1.47 C757.63 -6, 1516.48 -10.62, 2358.41 -8.36 M-0.77 -0.09 C680.18 -12.58, 1359.66 -15.68, 2357.42 -9.19" stroke="#000000" stroke-width="4" fill="none"></path></g></g><g stroke-linecap="round"><g transform="translate(428.3078863095834 14.5342999406074) rotate(0 -0.8462899589788435 134.33554270756164)"><path d="M2.88 -0.76 C2.22 74.33, -2.25 149.74, -2.94 268.97 M-0.18 1.5 C1.56 100.65, -1.06 199.29, -4.57 269.43" stroke="#000000" stroke-width="4" fill="none"></path></g></g><g stroke-linecap="round"><g transform="translate(640.9744614235158 15.867587497573481) rotate(0 -2.1189689717822375 136.3327221497811)"><path d="M-0.76 2.71 C-1.22 86.72, -0.95 176.37, -5.7 271.48 M1.5 1.19 C-4.44 96.22, -6.89 192.13, -5.24 269.48" stroke="#000000" stroke-width="4" fill="none"></path></g></g><g stroke-linecap="round"><g transform="translate(862.9746852190883 11.200839450698425) rotate(0 -1.2412738152152087 135.99602173352625)"><path d="M2.71 0.92 C2.03 81.01, 3.18 155.85, -3.19 271.07 M1.19 1.53 C-1.03 55.89, -1.89 109.86, -5.19 268.92" stroke="#000000" stroke-width="4" fill="none"></path></g></g><g stroke-linecap="round"><g transform="translate(1068.307810015638 18.20098695232639) rotate(0 -1.7854300996399388 134.11131633474994)"><path d="M0.92 -0.3 C-0.2 107.99, -5.57 213.27, -3.6 266.31 M1.53 0.53 C3.48 78.58, 1.07 155.71, -5.75 268.53" stroke="#000000" stroke-width="4" fill="none"></path></g></g><g stroke-linecap="round"><g transform="translate(1280.9743851295707 19.53427450929223) rotate(0 -3.0667878936952775 135.1229587817616)"><path d="M-0.3 2.91 C4.57 73.95, 2.85 150.35, -8.36 268.98 M0.53 0.97 C1.85 106.81, -0.88 212.93, -6.14 269.28" stroke="#000000" stroke-width="4" fill="none"></path></g></g><g stroke-linecap="round"><g transform="translate(1910.3078176450326 15.034305026870118) rotate(0 -1.386905315519698 136.55125350642265)"><path d="M2.91 2.4 C-1.18 106.18, -1.14 205.06, -5.69 272.34 M0.97 0.76 C2.21 101.39, -0.3 201.66, -5.39 270.58" stroke="#000000" stroke-width="4" fill="none"></path></g></g><g stroke-linecap="round"><g transform="translate(2140.3079193702933 10.367556979995292) rotate(0 -0.8434828568074408 135.67192414937207)"><path d="M2.4 -0.37 C-0.02 90.55, -6.95 177.19, -2.32 271.71 M0.76 0.1 C-0.54 106.69, -3.61 214.1, -4.08 270.24" stroke="#000000" stroke-width="4" fill="none"></path></g></g><g stroke-linecap="round"><g transform="translate(2337.6411662371556 17.367704481623264) rotate(0 -1.3672353524289065 136.267247003538)"><path d="M-0.37 2.14 C4.11 75.22, 0.47 159.44, -2.96 272.39 M0.1 0.14 C0.42 89.21, -1.01 181.24, -4.43 269.85" stroke="#000000" stroke-width="4" fill="none"></path></g></g><g stroke-linecap="round"><g transform="translate(2550.307741351088 18.700992038589106) rotate(0 -1.3380597023949576 134.99406823251672)"><path d="M2.14 1.73 C-1.89 105.46, 2.04 214.01, -2.28 270.4 M0.14 -0.41 C-0.69 97.4, -0.56 195.81, -4.82 270.18" stroke="#000000" stroke-width="4" fill="none"></path></g></g><g stroke-linecap="round"><g transform="translate(2788.3077210060355 14.034243991714092) rotate(0 -1.376578579013767 134.1245249253903)"><path d="M1.73 -3.02 C-2.86 104.43, -2.13 205.85, -4.26 271.27 M-0.41 -0.81 C-1.66 95.12, -2.56 188.24, -4.49 270.79" stroke="#000000" stroke-width="4" fill="none"></path></g></g><g stroke-linecap="round" transform="translate(1484.3077438942191 150.53431011313353) rotate(0 11.999918619791515 13.333333333333314)"><path d="M5.91 3.38 C8.03 2.16, 12.67 1.42, 15.1 1.88 C17.52 2.33, 18.7 3.93, 20.48 6.1 C22.26 8.28, 25.95 12.28, 25.78 14.9 C25.62 17.53, 21.33 20.02, 19.5 21.85 C17.68 23.68, 17.37 25.2, 14.81 25.89 C12.25 26.58, 6.46 27.16, 4.14 25.98 C1.81 24.79, 1.42 21.93, 0.87 18.79 C0.33 15.64, -0.31 9.97, 0.86 7.12 C2.03 4.26, 5.57 2.99, 7.91 1.64 C10.25 0.29, 14.86 -1.18, 14.89 -0.98 M17.43 3.89 C19.89 5.72, 22.86 8.87, 23.46 11.35 C24.06 13.84, 22.37 16.64, 21.03 18.82 C19.7 21, 17.98 22.91, 15.46 24.44 C12.95 25.97, 7.95 28.88, 5.96 28.01 C3.97 27.14, 4.47 21.76, 3.51 19.23 C2.55 16.7, -0.03 15.32, 0.19 12.81 C0.41 10.3, 2.59 5.9, 4.84 4.15 C7.09 2.41, 11.46 2.51, 13.71 2.34 C15.95 2.18, 17.04 2.9, 18.32 3.17 C19.61 3.44, 21.58 3.54, 21.42 3.95" stroke="none" stroke-width="0" fill="#000000"></path><path d="M12.59 0.77 C14.89 0.2, 18.02 1.69, 19.86 3.19 C21.7 4.68, 23.19 7.33, 23.63 9.73 C24.06 12.14, 23.53 14.77, 22.48 17.63 C21.42 20.48, 19.3 25.31, 17.28 26.86 C15.26 28.42, 12.65 27.58, 10.35 26.95 C8.04 26.33, 5.29 25.4, 3.43 23.12 C1.57 20.85, -0.73 16.53, -0.81 13.29 C-0.88 10.05, 1.07 5.97, 2.96 3.71 C4.85 1.44, 8.87 0.47, 10.54 -0.29 C12.2 -1.04, 12.45 -1.03, 12.94 -0.84 M7.74 -1.54 C9.42 -2.58, 12.39 2.44, 15.26 3.67 C18.13 4.89, 23.35 3.73, 24.96 5.84 C26.58 7.94, 25.83 13.45, 24.94 16.3 C24.05 19.15, 21.58 21.15, 19.61 22.92 C17.65 24.69, 15.82 26.49, 13.15 26.91 C10.48 27.34, 5.73 27.09, 3.6 25.47 C1.47 23.85, 1.04 20.4, 0.37 17.22 C-0.29 14.04, -1.75 9.27, -0.38 6.38 C0.98 3.5, 7.03 1.24, 8.57 -0.1 C10.11 -1.45, 8.66 -1.78, 8.86 -1.69" stroke="#000000" stroke-width="4" fill="none"></path></g><g stroke-linecap="round" transform="translate(1559.6411992978647 149.86760275636254) rotate(0 11.999918619791515 13.333333333333314)"><path d="M16.32 1.25 C19 1.59, 21.73 2.09, 23.22 4.51 C24.71 6.93, 25.41 13.07, 25.24 15.78 C25.08 18.49, 24.24 18.84, 22.26 20.78 C20.28 22.71, 16.25 27.06, 13.35 27.38 C10.46 27.71, 6.84 24.41, 4.9 22.75 C2.95 21.1, 2.18 19.86, 1.68 17.45 C1.19 15.03, 1.39 11.19, 1.94 8.26 C2.48 5.33, 2.12 0.68, 4.97 -0.14 C7.82 -0.96, 16.72 2.93, 19.03 3.32 C21.33 3.72, 18.9 2.11, 18.79 2.22 M5.08 3.7 C7.13 1.61, 10.26 -1.33, 12.55 -1.81 C14.84 -2.29, 17.16 -0.63, 18.84 0.85 C20.52 2.32, 21.69 3.78, 22.65 7.03 C23.62 10.29, 25.86 17.3, 24.62 20.39 C23.38 23.49, 17.74 24.42, 15.21 25.61 C12.67 26.8, 11.55 27.85, 9.41 27.53 C7.27 27.2, 3.52 26.33, 2.35 23.67 C1.17 21, 2.01 14.38, 2.35 11.52 C2.68 8.66, 3.9 7.91, 4.36 6.52 C4.82 5.13, 4.72 3.45, 5.09 3.17" stroke="none" stroke-width="0" fill="#000000"></path><path d="M22.5 6.91 C23.94 8.73, 25.23 12.05, 24.92 14.61 C24.62 17.16, 22.82 20.24, 20.68 22.22 C18.53 24.21, 14.35 26.01, 12.03 26.54 C9.7 27.07, 8.55 26.86, 6.72 25.41 C4.89 23.97, 1.69 20.96, 1.07 17.87 C0.44 14.79, 1.88 9.71, 2.98 6.88 C4.09 4.05, 5.75 2.19, 7.69 0.92 C9.64 -0.35, 12.08 -2.14, 14.65 -0.74 C17.22 0.66, 21.78 6.72, 23.11 9.3 C24.43 11.88, 22.85 14.78, 22.62 14.72 M18.4 2.89 C20.19 5.2, 26.34 11.54, 26.69 14.78 C27.05 18.02, 22.47 20.39, 20.55 22.34 C18.64 24.28, 17.64 25.69, 15.2 26.43 C12.75 27.18, 8.2 28.17, 5.88 26.82 C3.57 25.48, 1.84 21.17, 1.3 18.36 C0.76 15.54, 1.65 12.96, 2.63 9.92 C3.62 6.89, 5.45 1.71, 7.22 0.13 C9 -1.46, 11.18 -0.33, 13.28 0.42 C15.38 1.16, 19.08 3.78, 19.84 4.61 C20.59 5.44, 18.09 5.69, 17.82 5.39" stroke="#000000" stroke-width="4" fill="none"></path></g><g stroke-linecap="round" transform="translate(1644.3079473447387 150.53431011313353) rotate(0 11.999918619791515 13.333333333333314)"><path d="M13.54 1.67 C15.89 1.58, 17.39 2.92, 19.41 4.84 C21.44 6.75, 25.52 10.56, 25.69 13.17 C25.86 15.77, 22 18.4, 20.44 20.45 C18.88 22.51, 18.82 24.44, 16.33 25.49 C13.85 26.54, 8.01 27.61, 5.53 26.76 C3.06 25.91, 2.35 23.38, 1.49 20.38 C0.64 17.39, 0.13 11.5, 0.41 8.78 C0.69 6.06, -0.09 5.4, 3.17 4.04 C6.43 2.68, 17.08 -0.03, 19.97 0.62 C22.85 1.27, 20.68 7.8, 20.49 7.95 M7.98 2.22 C10.17 0.91, 12.31 0.15, 14.46 0.77 C16.61 1.38, 19.81 3.1, 20.87 5.92 C21.93 8.74, 20.82 15.01, 20.82 17.68 C20.82 20.35, 22.35 20.33, 20.87 21.93 C19.39 23.53, 14.49 26.99, 11.93 27.28 C9.36 27.56, 6.96 25.22, 5.46 23.62 C3.96 22.02, 3.64 20.43, 2.92 17.7 C2.21 14.97, -0.13 9.84, 1.18 7.23 C2.49 4.62, 9.77 2.74, 10.79 2.06 C11.82 1.37, 7.71 3.33, 7.34 3.12" stroke="none" stroke-width="0" fill="#000000"></path><path d="M21.49 4.62 C23.06 6.28, 24.04 9.49, 24.04 11.99 C24.04 14.5, 22.94 17.03, 21.49 19.65 C20.04 22.27, 17.53 26.61, 15.35 27.71 C13.16 28.8, 10.55 27.31, 8.38 26.22 C6.21 25.13, 3.83 23.69, 2.35 21.16 C0.87 18.62, -0.86 14.17, -0.5 11.01 C-0.14 7.85, 2.51 4.06, 4.51 2.18 C6.52 0.3, 8.27 -2.16, 11.53 -0.27 C14.79 1.62, 22.68 9.49, 24.08 13.52 C25.49 17.54, 20.28 23.45, 19.95 23.88 M20.66 8.41 C22.67 10.71, 26.19 10.89, 26.36 13.33 C26.52 15.77, 23.86 20.97, 21.67 23.04 C19.48 25.1, 15.72 25.5, 13.21 25.74 C10.71 25.99, 8.82 25.64, 6.61 24.51 C4.41 23.38, 0.86 21.44, -0.01 18.96 C-0.88 16.48, 0.57 12.59, 1.37 9.65 C2.16 6.7, 2.41 2.96, 4.76 1.3 C7.11 -0.37, 12.51 -0.62, 15.45 -0.33 C18.39 -0.03, 21.17 2.29, 22.39 3.06 C23.61 3.83, 23.4 3.85, 22.79 4.31" stroke="#000000" stroke-width="4" fill="none"></path></g><g transform="translate(497.6412806780734 310.03418804282103) rotate(0 22.999999999999943 95.8333333333332)"><text x="0" y="133.66666666666643" font-family="Virgil, Segoe UI Emoji" font-size="153.3333333333331px" fill="#000000" text-anchor="start" style="white-space: pre;" direction="ltr">1</text></g><g transform="translate(687.3078049293754 312.0341473527168) rotate(0 55 97)"><text x="0" y="136" font-family="Virgil, Segoe UI Emoji" font-size="153.3333333333331px" fill="#000000" text-anchor="start" style="white-space: pre;" direction="ltr">2</text></g><g transform="translate(923.3078659645316 312.70085470948754) rotate(0 52.5 97)"><text x="0" y="136" font-family="Virgil, Segoe UI Emoji" font-size="153.3333333333331px" fill="#000000" text-anchor="start" style="white-space: pre;" direction="ltr">3</text></g><g transform="translate(1120.6412399879691 318.700915744644) rotate(0 49.5 97)"><text x="0" y="136" font-family="Virgil, Segoe UI Emoji" font-size="153.3333333333331px" fill="#000000" text-anchor="start" style="white-space: pre;" direction="ltr">4</text></g><g stroke-linecap="round"><g transform="translate(2414.9744512509897 291.867419650894) rotate(0 -2.9115254811215436 118.24608732848361)"><path d="M-1.72 -0.12 C0.6 74.74, -3.39 147.47, -4.81 236.61" stroke="#000000" stroke-width="4.5" fill="none" stroke-dasharray="1.5 10"></path></g></g><g stroke-linecap="round"><g transform="translate(2232.2897512735517 694.0125179049784) rotate(0 164.05871408504095 4.740313909146607)"><path d="M-0.1 2.18 C103.36 5.02, 205.07 8.48, 328.22 6.91" stroke="#000000" stroke-width="4.5" fill="none" stroke-dasharray="1.5 10"></path></g><g transform="translate(2232.2897512735517 694.0125179049784) rotate(0 164.05871408504095 4.740313909146607)"><path d="M329.75 4.87 L311.74 12.42 L312.55 1.5 L328.43 6.56" stroke="none" stroke-width="0" fill="#000000" fill-rule="evenodd"></path><path d="M328.11 9.31 C325.71 9.73, 321.4 13.5, 313.39 14.44 M314.27 13.46 C313.24 11.87, 314 5.29, 316.64 3.04 M317.33 3 C317.21 3.69, 322.52 4.46, 327.34 8.41 M328.22 6.91 C328.22 6.91, 328.22 6.91, 328.22 6.91" stroke="#000000" stroke-width="4.5" fill="none"></path></g></g><g stroke-linecap="round"><g transform="translate(2237.6408737770307 293.8674908585764) rotate(0 -2.5427378386832515 196.32218381142573)"><path d="M1.85 1.33 C-3.72 108.42, -4.46 213.38, -6.94 391.31" stroke="#000000" stroke-width="4.5" fill="none" stroke-dasharray="1.5 10"></path></g></g><g stroke-linecap="round"><g transform="translate(2412.9638074354143 526.7583984230545) rotate(0 72.04824065197408 3.0595490119271744)"><path d="M2.3 1.31 C37.57 2.87, 69.18 2.11, 141.8 4.81" stroke="#000000" stroke-width="4.5" fill="none" stroke-dasharray="1.5 10"></path></g><g transform="translate(2412.9638074354143 526.7583984230545) rotate(0 72.04824065197408 3.0595490119271744)"><path d="M138.9 3.94 L125.96 11.64 L128.6 -2.29 L145.1 6.64" stroke="none" stroke-width="0" fill="#000000" fill-rule="evenodd"></path><path d="M143.52 5.79 C139.98 9.3, 133.7 9.14, 127.51 10.07 M126.57 12.92 C127.47 6.88, 130.27 7.08, 127.99 -3.81 M127.23 -0.75 C132.29 -0.22, 134.64 2.87, 142.05 4.39 M141.8 4.81 C141.8 4.81, 141.8 4.81, 141.8 4.81" stroke="#000000" stroke-width="4.5" fill="none"></path></g></g><g stroke-linecap="round"><g transform="translate(1989.819233002423 322.9223443426109) rotate(0 -5.2480528140861225 264.42792818893986)"><path d="M0.52 0.86 C1.65 156.14, -2.43 313.29, -11.2 527.99" stroke="#000000" stroke-width="4.5" fill="none" stroke-dasharray="1.5 10"></path></g></g><g stroke-linecap="round"><g transform="translate(1989.6409958473432 843.8675925838364) rotate(0 280.0086711491151 15.52145778288451)"><path d="M0.86 1.49 C212.17 10.46, 425.26 20.8, 559.15 29.55" stroke="#000000" stroke-width="4.5" fill="none" stroke-dasharray="1.5 10"></path></g><g transform="translate(1989.6409958473432 843.8675925838364) rotate(0 280.0086711491151 15.52145778288451)"><path d="M557.09 30.45 L545.42 34.73 L549.26 24.26 L562.47 28.01" stroke="none" stroke-width="0" fill="#000000" fill-rule="evenodd"></path><path d="M560.77 32.35 C552.68 32.91, 548.12 33.17, 543.43 34.65 M544.54 34.27 C547.62 33.62, 545.41 25.42, 544.97 24.73 M546.23 22.6 C550.04 26.53, 556.19 27.32, 561.33 29.8 M559.15 29.55 C559.15 29.55, 559.15 29.55, 559.15 29.55" stroke="#000000" stroke-width="4.5" fill="none"></path></g></g><g stroke-linecap="round"><g transform="translate(2681.116067819956 300.6078117447511) rotate(0 3.6726873308825816 34.95300980905688)"><path d="M3.72 -1.66 C3.64 24.76, 2.83 48.53, 3.98 71.56" stroke="#000000" stroke-width="4.5" fill="none" stroke-dasharray="1.5 10"></path></g><g transform="translate(2681.116067819956 300.6078117447511) rotate(0 3.6726873308825816 34.95300980905688)"><path d="M4.87 71.77 L-3.09 61.45 L11.77 61.11 L2.43 74.08" stroke="none" stroke-width="0" fill="#000000" fill-rule="evenodd"></path><path d="M6.77 70.32 C2.65 66.33, -1.58 60.26, -3.17 58.36 M-3.54 60.18 C2.77 57.73, 1.55 57.06, 12.24 59.83 M10.11 56.93 C9.99 61.66, 6.52 67.17, 4.22 73.51 M3.98 71.56 C3.98 71.56, 3.98 71.56, 3.98 71.56" stroke="#000000" stroke-width="4.5" fill="none"></path></g></g><g transform="translate(1511.383440024315 699.034333001317) rotate(0 80.50009155273438 148.61555363581732)"><text x="0" y="238.23110727163458" font-family="Cascadia, Segoe UI Emoji" font-size="247.69258939302887px" fill="#1864ab" text-anchor="start" style="white-space: pre;" direction="ltr">≡</text></g><g transform="translate(1396.8835620946275 560.03411937827) rotate(0 227 77.5)"><text x="0" y="125" font-family="Cascadia, Segoe UI Emoji" font-size="128.8889227973091px" fill="#1864ab" text-anchor="start" style="white-space: pre;" direction="ltr">list()</text></g><g stroke-linecap="round"><g transform="translate(555.3836841649404 200.5343787776842) rotate(0 -5.235658039897714 571.0380083764342)"><path d="M-1.92 -2.75 C-3.7 187.35, -9.79 950.98, -11.01 1142.18 M2.24 1.93 C0.19 192.2, -10.75 953.84, -12.71 1144.83" stroke="#c92a2a" stroke-width="4" fill="none"></path></g><g transform="translate(555.3836841649404 200.5343787776842) rotate(0 -5.235658039897714 571.0380083764342)"><path d="M-15.98 1146.03 L-20.32 1128.38 L-9.89 1131.95 L-8.87 1143.76" stroke="none" stroke-width="0" fill="#c92a2a" fill-rule="evenodd"></path><path d="M-15.66 1145.89 C-16.6 1143.75, -15.91 1137.21, -17.41 1131.11 M-13.61 1145.09 C-15.37 1143.03, -16.94 1139.74, -19.77 1130.1 M-18.74 1129.38 C-13.79 1128.65, -13.47 1130.11, -4.86 1131.89 M-18.71 1130.56 C-13.36 1131.91, -9.43 1130.72, -6.54 1132.28 M-6.04 1128.38 C-10.7 1136.06, -10.75 1142.69, -10.15 1146.98 M-6.98 1132.44 C-7.25 1135.79, -11.74 1139.43, -12.98 1146.05 M-12.71 1144.83 C-12.71 1144.83, -12.71 1144.83, -12.71 1144.83 M-12.71 1144.83 C-12.71 1144.83, -12.71 1144.83, -12.71 1144.83" stroke="#c92a2a" stroke-width="4" fill="none"></path></g></g><g stroke-linecap="round"><g transform="translate(804.3833179540029 178.53406597250864) rotate(0 -4.447029366344168 571.047422179058)"><path d="M-2.12 -1 C-4.19 190.18, -8.6 955.1, -9.78 1146.1 M1.92 -4 C-0.56 186.49, -8.91 951.56, -10.82 1142.23" stroke="#c92a2a" stroke-width="4" fill="none"></path></g><g transform="translate(804.3833179540029 178.53406597250864) rotate(0 -4.447029366344168 571.047422179058)"><path d="M-11.48 1140.12 L-16.92 1131.68 L-2.46 1127.8 L-12.61 1144.64" stroke="none" stroke-width="0" fill="#c92a2a" fill-rule="evenodd"></path><path d="M-11.88 1144.6 C-10.92 1139.72, -14.57 1133.74, -18.26 1125.8 M-10.16 1143.72 C-12.61 1137.15, -14.25 1131.5, -16.68 1129.13 M-14.62 1127.87 C-14.59 1131.21, -5.96 1128.38, -6.27 1126.46 M-16.07 1129.19 C-12.7 1127.64, -9.75 1127.63, -5.41 1128.8 M-7.01 1127.8 C-5.93 1130.55, -10.15 1138.69, -11.06 1141.53 M-5 1129.94 C-5.52 1133.07, -9.47 1136.11, -10.51 1143.61 M-10.82 1142.23 C-10.82 1142.23, -10.82 1142.23, -10.82 1142.23 M-10.82 1142.23 C-10.82 1142.23, -10.82 1142.23, -10.82 1142.23" stroke="#c92a2a" stroke-width="4" fill="none"></path></g></g><g stroke-linecap="round"><g transform="translate(1019.3833179540029 202.53415752524302) rotate(0 -5.547784932702712 572.8067407826331)"><path d="M-2.72 2.08 C-4.53 192.85, -8.62 954.77, -10.61 1144.88 M1 0.73 C-1.07 190.61, -10.38 949.6, -12.1 1140.34" stroke="#c92a2a" stroke-width="4" fill="none"></path></g><g transform="translate(1019.3833179540029 202.53415752524302) rotate(0 -5.547784932702712 572.8067407826331)"><path d="M-11.44 1142.86 L-20.6 1126.96 L-5.53 1127.44 L-14.94 1136.87" stroke="none" stroke-width="0" fill="#c92a2a" fill-rule="evenodd"></path><path d="M-9.87 1141.83 C-13.09 1133.14, -17.27 1128.8, -20.83 1126.91 M-13.43 1139.9 C-14.22 1134.95, -17.24 1132.7, -18.41 1126.33 M-19.42 1128.78 C-12.93 1126.9, -12.44 1125.15, -5.1 1129.15 M-18.97 1125.84 C-14.11 1126.28, -9.02 1125.71, -5.46 1127.66 M-3.19 1125.38 C-8.48 1129.38, -8.47 1136.98, -14.5 1138.42 M-4.44 1127.52 C-7.93 1129.98, -8.53 1134.05, -11.1 1140.03 M-12.1 1140.34 C-12.1 1140.34, -12.1 1140.34, -12.1 1140.34 M-12.1 1140.34 C-12.1 1140.34, -12.1 1140.34, -12.1 1140.34" stroke="#c92a2a" stroke-width="4" fill="none"></path></g></g><g stroke-linecap="round"><g transform="translate(2292.38319588369 186.53409649008677) rotate(0 -4.593999502733368 572.8763155091553)"><path d="M2.53 -1.78 C0.39 189.22, -7.93 952.57, -10.36 1143.94 M0.45 3.42 C-2.13 195.09, -9.32 957.73, -11.72 1147.54" stroke="#c92a2a" stroke-width="4" fill="none"></path></g><g transform="translate(2292.38319588369 186.53409649008677) rotate(0 -4.593999502733368 572.8763155091553)"><path d="M-13.04 1147.8 L-18.25 1136.23 L-6.8 1134.58 L-10.56 1150.62" stroke="none" stroke-width="0" fill="#c92a2a" fill-rule="evenodd"></path><path d="M-13.63 1149.29 C-13.97 1142.28, -13.67 1135.72, -15.73 1135.68 M-10.94 1147.56 C-14.9 1143.85, -15.8 1137.79, -17.6 1134.03 M-15.66 1132.26 C-15.66 1131.74, -10.96 1133.5, -2.95 1134.65 M-17.48 1132.82 C-13.45 1134.29, -7.12 1133.5, -6.39 1133.44 M-3.42 1133.53 C-8.2 1137.94, -8.33 1140.87, -11.76 1147.32 M-5.29 1135.08 C-8.27 1138.73, -10.4 1142.08, -11.31 1148.28 M-11.72 1147.54 C-11.72 1147.54, -11.72 1147.54, -11.72 1147.54 M-11.72 1147.54 C-11.72 1147.54, -11.72 1147.54, -11.72 1147.54" stroke="#c92a2a" stroke-width="4" fill="none"></path></g></g><g stroke-linecap="round"><g transform="translate(2479.3836231297837 198.53421856039927) rotate(0 -4.344232355728764 570.8509002427008)"><path d="M1.67 -0.35 C0.17 190.81, -7.57 953.76, -9.48 1144.71 M-0.87 -3.01 C-2.47 187.47, -8.76 949.5, -10.35 1140.08" stroke="#c92a2a" stroke-width="4" fill="none"></path></g><g transform="translate(2479.3836231297837 198.53421856039927) rotate(0 -4.344232355728764 570.8509002427008)"><path d="M-13.18 1137.54 L-20.55 1128.44 L-7.02 1124.19 L-11.34 1142.98" stroke="none" stroke-width="0" fill="#c92a2a" fill-rule="evenodd"></path><path d="M-10.73 1142.78 C-11.13 1138.66, -12.23 1133.39, -15.57 1123.95 M-10.82 1138.71 C-12.83 1137.08, -13.2 1133.85, -15.67 1126.19 M-18.66 1126.4 C-13.33 1126.41, -11.78 1126.24, -4 1128.35 M-16.65 1126.78 C-12.88 1126.97, -11.27 1127.82, -4.71 1126.43 M-3.38 1126.91 C-5.19 1129.83, -9.6 1135.88, -11.14 1139.94 M-3.72 1126.36 C-7.06 1130.36, -7.98 1135.09, -9.47 1139.49 M-10.35 1140.08 C-10.35 1140.08, -10.35 1140.08, -10.35 1140.08 M-10.35 1140.08 C-10.35 1140.08, -10.35 1140.08, -10.35 1140.08" stroke="#c92a2a" stroke-width="4" fill="none"></path></g></g><g stroke-linecap="round"><g transform="translate(2679.3833179540025 185.53418804282114) rotate(0 -6.416669248193557 571.5050324021279)"><path d="M-1.69 -0.66 C-3.88 189.68, -11.03 952.39, -12.76 1143.27 M2.58 -3.49 C-0.07 187.16, -12.65 954.58, -15.42 1146.5" stroke="#c92a2a" stroke-width="4" fill="none"></path></g><g transform="translate(2679.3833179540025 185.53418804282114) rotate(0 -6.416669248193557 571.5050324021279)"><path d="M-15.31 1148.92 L-17.67 1132.69 L-7.58 1131.72 L-12.66 1146.81" stroke="none" stroke-width="0" fill="#c92a2a" fill-rule="evenodd"></path><path d="M-16.13 1145.68 C-18.23 1142.01, -18.71 1137.64, -22.34 1133.17 M-15.32 1146.37 C-16.1 1141.93, -18.54 1139.01, -20.39 1133.45 M-22 1130.44 C-16.57 1133.95, -10.93 1131.59, -10.47 1135.34 M-21.69 1133.48 C-18.64 1132.04, -17 1132.32, -10.13 1133.64 M-6.69 1132.81 C-12.76 1136.67, -11 1138.62, -14.75 1147.98 M-7.72 1132.3 C-10.95 1136.71, -14.4 1142.91, -14.76 1146.6 M-15.42 1146.5 C-15.42 1146.5, -15.42 1146.5, -15.42 1146.5 M-15.42 1146.5 C-15.42 1146.5, -15.42 1146.5, -15.42 1146.5" stroke="#c92a2a" stroke-width="4" fill="none"></path></g></g><g transform="translate(2593.308069415052 301.3674399959458) rotate(0 267.81958762886643 83.66666666666674)"><text x="0" y="117.33333333333351" font-family="Virgil, Segoe UI Emoji" font-size="132.25658648339058px" fill="#000000" text-anchor="start" style="white-space: pre;" direction="ltr">n_pages</text></g><g transform="translate(2600.641239987969 429.3675213761543) rotate(0 363 97)"><text x="0" y="136" font-family="Virgil, Segoe UI Emoji" font-size="153.3333333333331px" fill="#000000" text-anchor="start" style="white-space: pre;" direction="ltr">n_pages-1</text></g><g transform="translate(2601.974247800468 598.7008140193838) rotate(0 396.5 97)"><text x="0" y="136" font-family="Virgil, Segoe UI Emoji" font-size="153.3333333333331px" fill="#000000" text-anchor="start" style="white-space: pre;" direction="ltr">n_pages-2</text></g><g transform="translate(2603.30766251401 774.7007733292793) rotate(0 394 97)"><text x="0" y="136" font-family="Virgil, Segoe UI Emoji" font-size="153.3333333333331px" fill="#000000" text-anchor="start" style="white-space: pre;" direction="ltr">n_pages-3</text></g><g transform="translate(1184.383012778222 1011.0342007584783) rotate(0 491.5 77.5)"><text x="0" y="125" font-family="Cascadia, Segoe UI Emoji" font-size="128.8889227973091px" fill="#1864ab" text-anchor="start" style="white-space: pre;" direction="ltr">queue.Queue()</text></g><g stroke-linecap="round"><g transform="translate(1229.3836231297842 188.53406597250864) rotate(0 -6.325038134232159 569.8164859543738)"><path d="M-0.37 -1.1 C-1.91 189.46, -8.85 950.36, -10.73 1141.52 M-4.02 -4.17 C-5.68 186.82, -10.73 952.89, -12.28 1143.81" stroke="#c92a2a" stroke-width="4" fill="none"></path></g><g transform="translate(1229.3836231297842 188.53406597250864) rotate(0 -6.325038134232159 569.8164859543738)"><path d="M-14.82 1146.14 L-18.6 1130.06 L-2.33 1128.46 L-9.38 1146.22" stroke="none" stroke-width="0" fill="#c92a2a" fill-rule="evenodd"></path><path d="M-13.46 1145.17 C-16.29 1140.8, -13.19 1139.42, -19.37 1133.1 M-13.62 1144.87 C-14.62 1137.39, -17.86 1133.15, -19.31 1130.2 M-19.65 1131.69 C-14.47 1131.94, -9.47 1130.92, -7.21 1130.64 M-17.96 1130.75 C-15.78 1130.34, -12.15 1131.33, -6.98 1129.1 M-5.13 1133.03 C-5.4 1134.85, -9.62 1136.59, -10.39 1142.07 M-6.91 1128.95 C-8.09 1133.93, -11.17 1137.44, -13.68 1144.51 M-12.28 1143.81 C-12.28 1143.81, -12.28 1143.81, -12.28 1143.81 M-12.28 1143.81 C-12.28 1143.81, -12.28 1143.81, -12.28 1143.81" stroke="#c92a2a" stroke-width="4" fill="none"></path></g></g><g stroke-linecap="round"><g transform="translate(2067.383501059471 196.53409649008677) rotate(0 -3.7066007934511163 572.5540465883164)"><path d="M-0.63 -1.25 C-2.71 189.06, -8.73 952.4, -10.31 1143.18 M4.22 4.24 C1.72 194.84, -9.11 956.03, -11.64 1146.36" stroke="#c92a2a" stroke-width="4" fill="none"></path></g><g transform="translate(2067.383501059471 196.53409649008677) rotate(0 -3.7066007934511163 572.5540465883164)"><path d="M-8.1 1143.81 L-18.54 1129.45 L-2.73 1132.36 L-8.04 1147.37" stroke="none" stroke-width="0" fill="#c92a2a" fill-rule="evenodd"></path><path d="M-12.98 1148.17 C-14.97 1143.15, -17.04 1136.73, -19.41 1133.14 M-10.98 1147.06 C-13.61 1143.24, -14.71 1140.89, -19.14 1131.31 M-17.19 1135.02 C-13.58 1134.14, -13.24 1133.18, -3.52 1131.39 M-18.69 1131.58 C-14.13 1132.27, -11.17 1131.77, -6.3 1133.45 M-3.01 1129.96 C-6.4 1139.39, -11.11 1140.54, -11.55 1144.72 M-6.04 1131.97 C-6.76 1137.73, -10.23 1142.38, -12.75 1147.72 M-11.64 1146.36 C-11.64 1146.36, -11.64 1146.36, -11.64 1146.36 M-11.64 1146.36 C-11.64 1146.36, -11.64 1146.36, -11.64 1146.36" stroke="#c92a2a" stroke-width="4" fill="none"></path></g></g></svg>