<svg version="1.1" xmlns="http://www.w3.org/2000/svg" viewBox="0 0 2992.422410019981 1235.666748046875" width="2992.422410019981" height="1235.666748046875">
  <!-- svg-source:excalidraw -->
  
  <defs>
    <style>
      @font-face {
        font-family: "Virgil";
        src: url("https://excalidraw.com/Virgil.woff2");
      }
      @font-face {
        font-family: "Cascadia";
        src: url("https://excalidraw.com/Cascadia.woff2");
      }
    </style>
  </defs>
  <g stroke-linecap="round"><g transform="translate(12.163033762323607 280.5878301531077) rotate(0 1176.008322687447 -4.555041090662314)"><path d="M1.41 -0.39 C681.7 -3.26, 1361.84 -5.57, 2351.27 -9.26 M0.2 0.15 C807.61 -2.44, 1614.46 -4.53, 2351.81 -8.08" stroke="#000000" stroke-width="4" fill="none"></path></g></g><g stroke-linecap="round"><g transform="translate(12.48399860237862 541.4785573093611) rotate(0 1171.740211755037 -0.7171013930090453)"><path d="M1.52 0.24 C837.16 -3.79, 1676.53 -6.07, 2343.42 -3.83 M0.06 0.78 C775.27 5.02, 1550.3 4.23, 2343.2 -4.49" stroke="#000000" stroke-width="4" fill="none"></path></g></g><g stroke-linecap="round"><g transform="translate(15.75604852909612 271.5002746582031) rotate(0 -2.724873264312862 135.44756971006214)"><path d="M0.31 2.62 C0.24 82.59, -0.49 170.61, -5.76 270.33 M-1.22 0.56 C-4.75 56.64, -3.4 112.82, -4.42 269.4" stroke="#000000" stroke-width="4" fill="none"></path></g></g><g stroke-linecap="round"><g transform="translate(228.4226236430285 272.8335622151691) rotate(0 -2.96494738713875 136.58315048226638)"><path d="M-0.57 1.66 C-7.36 91.84, -7.55 184.54, -7.77 272.4 M0.37 0.77 C3.24 59.83, 2.31 118.78, -5.66 268.34" stroke="#000000" stroke-width="4" fill="none"></path></g></g><g stroke-linecap="round"><g transform="translate(458.4227253682885 268.1668141682942) rotate(0 -2.9229907434112192 135.1839682228263)"><path d="M1.54 1.91 C-5.71 88.22, -5.21 174.33, -7.39 269.27 M0.89 0.37 C-0.73 102.11, -1.67 204.63, -4.12 270" stroke="#000000" stroke-width="4" fill="none"></path></g></g><g stroke-linecap="round"><g transform="translate(655.7559722351508 275.166961669922) rotate(0 -2.658048043823328 134.0134454192036)"><path d="M2.53 0.37 C-4.88 64.51, -8.8 129.9, -7.65 267.36 M-0.12 0.08 C-1.75 83.78, -4.29 169.06, -4.01 267.95" stroke="#000000" stroke-width="4" fill="none"></path></g></g><g stroke-linecap="round"><g transform="translate(868.4225473490834 276.50024922688795) rotate(0 -3.4668653866351633 135.0228302745364)"><path d="M0.37 0.32 C0.16 53.64, -0.73 109.52, -7.31 269.72 M0.08 1.33 C-4.68 72.24, -4.98 144.91, -6.72 268.57" stroke="#000000" stroke-width="4" fill="none"></path></g></g><g stroke-linecap="round"><g transform="translate(1497.7559798645452 272.00027974446584) rotate(0 -2.604995103133433 134.2234222867178)"><path d="M-2.59 -1.93 C-1.04 101.28, -1.45 202.11, -2.72 270.38 M-0.41 0.91 C-4.91 84.67, -5.79 166.79, -3.81 270.27" stroke="#000000" stroke-width="4" fill="none"></path></g></g><g stroke-linecap="round"><g transform="translate(1727.756081589806 267.33353169759096) rotate(0 -1.5462579422321596 134.17582499105458)"><path d="M-1.93 -1.31 C-3.04 95.58, -5.85 193.24, -4.29 269.66 M0.91 0.33 C3.08 59.02, 0.47 117.37, -4.4 269.41" stroke="#000000" stroke-width="4" fill="none"></path></g></g><g stroke-linecap="round"><g transform="translate(1925.0893284566682 274.33367919921886) rotate(0 -2.459557224048922 134.8343363948309)"><path d="M-1.31 -0.47 C-4.71 74.98, -3.9 153.85, -5.01 266.67 M0.33 1.02 C-2.01 100.86, -3.59 203.49, -5.25 270.14" stroke="#000000" stroke-width="4" fill="none"></path></g></g><g stroke-linecap="round"><g transform="translate(2137.755903570601 275.6669667561848) rotate(0 -3.4902667042917983 136.00552229195927)"><path d="M-0.47 0.29 C-5.16 61.15, -3.88 117.43, -8 271.72 M1.02 1.1 C0.55 75.3, 0.47 147.62, -4.53 269.1" stroke="#000000" stroke-width="4" fill="none"></path></g></g><g stroke-linecap="round"><g transform="translate(2367.7560052958606 271.00021870930993) rotate(0 -2.232795017114313 133.58465458155413)"><path d="M0.29 -1.39 C-0.42 65.24, -3.98 125.74, -2.95 268.51 M1.1 -0.44 C0.52 97.43, -2.84 193.75, -5.57 268.56" stroke="#000000" stroke-width="4" fill="none"></path></g></g><g stroke-linecap="round" transform="translate(1071.7559061137317 407.50028483072913) rotate(0 11.999918619791515 13.333333333333314)"><path d="M14.96 0.37 C17.32 0.39, 17.26 1.62, 19.08 3.48 C20.9 5.34, 25.38 8.36, 25.89 11.51 C26.41 14.65, 23.81 19.86, 22.18 22.34 C20.54 24.83, 18.48 25.92, 16.1 26.43 C13.72 26.93, 10.65 26.81, 7.89 25.38 C5.14 23.94, 0.82 20.74, -0.43 17.79 C-1.68 14.84, -0.5 10.02, 0.4 7.66 C1.3 5.31, 1.58 3.61, 4.96 3.64 C8.33 3.68, 17.35 5.61, 20.67 7.88 C23.98 10.15, 24.48 17.27, 24.87 17.28 M16.5 5.17 C19.39 7.11, 25.44 8.18, 26.5 10.17 C27.57 12.17, 24.24 14.52, 22.9 17.14 C21.56 19.77, 20.97 24.43, 18.45 25.92 C15.94 27.42, 10.34 26.89, 7.81 26.12 C5.27 25.35, 4.87 23.99, 3.26 21.3 C1.64 18.62, -1.74 13.32, -1.89 10 C-2.03 6.67, -0.18 3, 2.37 1.34 C4.93 -0.32, 10.83 -0.32, 13.46 0.02 C16.09 0.36, 16.93 2.71, 18.16 3.37 C19.38 4.03, 21.01 3.75, 20.81 4.01" stroke="none" stroke-width="0" fill="#000000"></path><path d="M2.93 4.84 C4.23 2.46, 7.03 0.73, 9.81 0.11 C12.59 -0.51, 17.49 -0.31, 19.6 1.14 C21.72 2.59, 22.14 6.16, 22.5 8.81 C22.85 11.46, 22.48 14.67, 21.73 17.05 C20.98 19.42, 20.16 21.55, 18 23.06 C15.84 24.58, 11.38 26.33, 8.78 26.11 C6.18 25.9, 3.94 23.62, 2.42 21.8 C0.9 19.99, -2.21 18.89, -0.35 15.22 C1.5 11.55, 9.96 1.07, 13.54 -0.22 C17.13 -1.51, 20.96 7.28, 21.16 7.47 M5.52 4.44 C6.31 3.06, 6.37 2.79, 8.1 2.04 C9.82 1.28, 13.33 -0.91, 15.87 -0.08 C18.41 0.76, 22.24 3.75, 23.34 7.07 C24.43 10.4, 23.53 17.29, 22.44 19.89 C21.34 22.49, 18.73 21.9, 16.76 22.66 C14.79 23.41, 12.91 24.3, 10.6 24.41 C8.29 24.52, 4.9 25.41, 2.89 23.3 C0.88 21.18, -1.32 14.91, -1.46 11.73 C-1.59 8.55, 0.99 5.71, 2.07 4.22 C3.15 2.72, 4.91 2.65, 5.05 2.77" stroke="#000000" stroke-width="4" fill="none"></path></g><g stroke-linecap="round" transform="translate(1147.0893615173773 406.83357747395814) rotate(0 11.999918619791515 13.333333333333314)"><path d="M5.65 2.49 C7.36 0.49, 9.01 -0.38, 11.05 0 C13.09 0.38, 15.48 2.7, 17.91 4.77 C20.33 6.85, 24.62 10.02, 25.59 12.45 C26.57 14.87, 25.28 17.26, 23.74 19.32 C22.2 21.39, 18.86 23.68, 16.35 24.84 C13.84 26, 11.22 26.96, 8.69 26.29 C6.16 25.63, 2.82 23.52, 1.16 20.84 C-0.5 18.15, -3.41 13.46, -1.25 10.2 C0.91 6.94, 10.24 2.16, 14.11 1.29 C17.98 0.42, 22.01 5.21, 21.97 4.98 M21.23 1.94 C22.92 3.25, 21.41 8.23, 22.12 10.98 C22.83 13.74, 26.74 16.43, 25.5 18.47 C24.26 20.51, 16.88 21.6, 14.68 23.22 C12.47 24.85, 14.36 28.26, 12.27 28.2 C10.18 28.15, 4.07 25.52, 2.15 22.89 C0.22 20.25, 0.65 15.66, 0.74 12.38 C0.82 9.1, 0.9 5.22, 2.66 3.21 C4.42 1.2, 8.97 0.18, 11.31 0.32 C13.65 0.47, 15.75 3.93, 16.7 4.07 C17.65 4.21, 16.83 1.53, 17.02 1.17" stroke="none" stroke-width="0" fill="#000000"></path><path d="M14 -1.1 C16.49 -0.41, 19.03 3.95, 20.45 6.65 C21.86 9.36, 22.12 12.56, 22.49 15.15 C22.87 17.74, 23.82 20.14, 22.7 22.2 C21.58 24.25, 18.35 27.32, 15.76 27.49 C13.17 27.66, 9.98 25.17, 7.15 23.24 C4.31 21.3, -0.46 18.01, -1.24 15.88 C-2.03 13.75, 1.21 12.8, 2.42 10.46 C3.63 8.12, 2.89 2.16, 6.02 1.84 C9.15 1.51, 18.37 5.72, 21.18 8.49 C23.98 11.27, 22.75 18.43, 22.83 18.48 M13.47 -1.81 C16.55 -1.03, 22.22 2.74, 23.78 5.54 C25.35 8.33, 23.12 11.94, 22.87 14.97 C22.63 18, 24.18 21.58, 22.31 23.71 C20.44 25.84, 14.23 27.95, 11.66 27.75 C9.1 27.55, 8.54 24.7, 6.93 22.5 C5.32 20.31, 3.48 16.97, 2.02 14.58 C0.56 12.19, -2.17 10.21, -1.85 8.16 C-1.54 6.11, 1.5 3.7, 3.89 2.28 C6.28 0.86, 10.58 0.15, 12.47 -0.35 C14.37 -0.84, 15.41 -0.91, 15.27 -0.69" stroke="#000000" stroke-width="4" fill="none"></path></g><g stroke-linecap="round" transform="translate(1231.7561095642513 407.50028483072913) rotate(0 11.999918619791515 13.333333333333314)"><path d="M8.44 1.95 C10.76 1.29, 14.41 1.87, 16.66 2.41 C18.91 2.94, 20.56 2.81, 21.94 5.17 C23.33 7.53, 25.28 13.9, 24.98 16.57 C24.69 19.24, 22.46 19.19, 20.18 21.2 C17.91 23.2, 13.69 28.16, 11.33 28.59 C8.97 29.02, 7.7 25.75, 6.03 23.78 C4.36 21.82, 2.12 19.63, 1.29 16.82 C0.47 14.02, -1.26 9.52, 1.09 6.94 C3.44 4.36, 11.79 1.48, 15.38 1.36 C18.97 1.24, 22.35 6.24, 22.62 6.21 M5.52 -1.57 C7.64 -2.23, 12.52 1.43, 15.18 2.48 C17.84 3.53, 20.08 2.51, 21.48 4.73 C22.88 6.94, 23.95 12.86, 23.58 15.79 C23.21 18.72, 21.12 19.98, 19.26 22.29 C17.41 24.59, 14.41 28.89, 12.45 29.62 C10.48 30.35, 9.11 29.03, 7.46 26.65 C5.81 24.26, 3.58 18.26, 2.53 15.3 C1.47 12.33, 0.52 11.54, 1.15 8.84 C1.78 6.14, 5.22 0.25, 6.31 -0.9 C7.4 -2.06, 6.99 1.81, 7.68 1.89" stroke="none" stroke-width="0" fill="#000000"></path><path d="M9.92 -1.01 C12.08 -2.07, 14.5 -1.23, 16.45 0.54 C18.4 2.31, 20.45 6.94, 21.62 9.62 C22.79 12.3, 23.9 13.95, 23.44 16.64 C22.98 19.32, 20.92 24.25, 18.87 25.73 C16.82 27.21, 13.63 25.9, 11.14 25.51 C8.64 25.13, 5.97 25.2, 3.91 23.44 C1.85 21.68, -0.73 18.3, -1.23 14.94 C-1.73 11.57, -2.28 5.81, 0.9 3.26 C4.08 0.71, 14.07 -0.96, 17.85 -0.35 C21.63 0.27, 23.8 6.37, 23.59 6.93 M5.87 4.07 C8.15 2.71, 9.99 -1.01, 12.87 -0.46 C15.76 0.08, 21.44 5.16, 23.16 7.33 C24.89 9.49, 23.66 10.5, 23.24 12.56 C22.81 14.61, 21.91 16.89, 20.62 19.66 C19.33 22.44, 17.75 28.06, 15.5 29.21 C13.24 30.36, 9.81 28.48, 7.09 26.56 C4.36 24.63, 0.44 20.51, -0.84 17.65 C-2.13 14.79, -1.99 12.18, -0.6 9.37 C0.79 6.57, 6.02 2.49, 7.52 0.82 C9.02 -0.84, 8.6 -1.03, 8.41 -0.62" stroke="#000000" stroke-width="4" fill="none"></path></g><g transform="translate(85.08944289758608 567.0001627604167) rotate(0 22.999999999999943 95.8333333333332)"><text x="0" y="133.66666666666643" font-family="Virgil, Segoe UI Emoji" font-size="153.3333333333331px" fill="#000000" text-anchor="start" style="white-space: pre;" direction="ltr">1</text></g><g transform="translate(274.7559671488881 569.0001220703125) rotate(0 55 97)"><text x="0" y="136" font-family="Virgil, Segoe UI Emoji" font-size="153.3333333333331px" fill="#000000" text-anchor="start" style="white-space: pre;" direction="ltr">2</text></g><g transform="translate(510.75602818404434 569.6668294270833) rotate(0 52.5 97)"><text x="0" y="136" font-family="Virgil, Segoe UI Emoji" font-size="153.3333333333331px" fill="#000000" text-anchor="start" style="white-space: pre;" direction="ltr">3</text></g><g transform="translate(708.0894022074818 575.6668904622397) rotate(0 49.5 97)"><text x="0" y="136" font-family="Virgil, Segoe UI Emoji" font-size="153.3333333333331px" fill="#000000" text-anchor="start" style="white-space: pre;" direction="ltr">4</text></g><g transform="translate(2180.7562316345648 558.3334147135415) rotate(0 267.81958762886643 83.66666666666674)"><text x="0" y="117.33333333333351" font-family="Virgil, Segoe UI Emoji" font-size="132.25658648339058px" fill="#000000" text-anchor="start" style="white-space: pre;" direction="ltr">n_pages</text></g><g transform="translate(2188.0894022074817 686.33349609375) rotate(0 363 97)"><text x="0" y="136" font-family="Virgil, Segoe UI Emoji" font-size="153.3333333333331px" fill="#000000" text-anchor="start" style="white-space: pre;" direction="ltr">n_pages-1</text></g><g transform="translate(2189.422410019981 855.6667887369795) rotate(0 396.5 97)"><text x="0" y="136" font-family="Virgil, Segoe UI Emoji" font-size="153.3333333333331px" fill="#000000" text-anchor="start" style="white-space: pre;" direction="ltr">n_pages-2</text></g><g transform="translate(2190.755824733523 1031.666748046875) rotate(0 394 97)"><text x="0" y="136" font-family="Virgil, Segoe UI Emoji" font-size="153.3333333333331px" fill="#000000" text-anchor="start" style="white-space: pre;" direction="ltr">n_pages-3</text></g><g stroke-linecap="round"><g transform="translate(2002.4226134705023 548.8333943684897) rotate(0 -4.5726572705546005 121.2025979327965)"><path d="M-2.07 1.62 C-1.22 80.06, 0.69 163.7, -7.86 240.79" stroke="#000000" stroke-width="4.5" fill="none" stroke-dasharray="1.5 10"></path></g></g><g stroke-linecap="round"><g transform="translate(1819.7379134930643 950.9784926225741) rotate(0 163.76916880724093 0.9891889007583927)"><path d="M0.9 -2.18 C68.48 3.88, 133.32 3.52, 326.64 4.16" stroke="#000000" stroke-width="4.5" fill="none" stroke-dasharray="1.5 10"></path></g><g transform="translate(1819.7379134930643 950.9784926225741) rotate(0 163.76916880724093 0.9891889007583927)"><path d="M326.72 0.17 L315.21 10.75 L313.38 0.65 L326.54 5" stroke="none" stroke-width="0" fill="#000000" fill-rule="evenodd"></path><path d="M327.62 1.77 C325.17 7.43, 319.74 7.02, 310.05 8.59 M314.92 9.82 C311.23 9.05, 312.52 2.17, 314.54 -0.4 M310.27 -2.5 C314.62 0.95, 317.99 0.88, 324.03 2.25 M326.64 4.16 C326.64 4.16, 326.64 4.16, 326.64 4.16" stroke="#000000" stroke-width="4.5" fill="none"></path></g></g><g stroke-linecap="round"><g transform="translate(1825.0890359965433 550.833465576172) rotate(0 -3.5698987446955925 196.4833336199764)"><path d="M0.2 -0.55 C-6.04 123.22, -6.46 248.52, -7.34 393.51" stroke="#000000" stroke-width="4.5" fill="none" stroke-dasharray="1.5 10"></path></g></g><g stroke-linecap="round"><g transform="translate(2000.411969654927 783.7243731406502) rotate(0 72.3259335957855 3.575639732819127)"><path d="M-0.94 -2.48 C35.66 2.24, 74.96 3.49, 145.6 9.63" stroke="#000000" stroke-width="4.5" fill="none" stroke-dasharray="1.5 10"></path></g><g transform="translate(2000.411969654927 783.7243731406502) rotate(0 72.3259335957855 3.575639732819127)"><path d="M144.46 13.28 L130.27 14.25 L134.99 2.2 L148.53 12.15" stroke="none" stroke-width="0" fill="#000000" fill-rule="evenodd"></path><path d="M144.89 7.77 C141.76 11.77, 140.63 12.95, 133.89 17.82 M129.03 15.61 C131.03 9.7, 130.34 6.62, 130.62 2.65 M132.92 0.35 C135.61 4.1, 142.56 8.24, 147.98 10.98 M145.6 9.63 C145.6 9.63, 145.6 9.63, 145.6 9.63" stroke="#000000" stroke-width="4.5" fill="none"></path></g></g><g stroke-linecap="round"><g transform="translate(1577.2673952219357 579.8883190602066) rotate(0 -4.373274822532949 263.77149031509947)"><path d="M1.14 -1.44 C-0.21 182.34, -3.84 360.8, -9.88 528.99" stroke="#000000" stroke-width="4.5" fill="none" stroke-dasharray="1.5 10"></path></g></g><g stroke-linecap="round"><g transform="translate(1577.0891580668558 1100.8335673014321) rotate(0 279.35223327527433 15.008849636217064)"><path d="M-1.44 0.05 C215 8.31, 426.21 20.49, 560.15 29.97" stroke="#000000" stroke-width="4.5" fill="none" stroke-dasharray="1.5 10"></path></g><g transform="translate(1577.0891580668558 1100.8335673014321) rotate(0 279.35223327527433 15.008849636217064)"><path d="M560.46 29.34 L546.35 36.01 L547.17 20.73 L557.66 27.08" stroke="none" stroke-width="0" fill="#000000" fill-rule="evenodd"></path><path d="M557.44 30.06 C557.65 32.49, 547.83 36.12, 546.25 35.75 M547.48 34.27 C546.02 28.51, 546.25 26.02, 548.55 24.75 M545.51 20.95 C552.43 23.21, 554.87 28.33, 557.72 32.58 M560.15 29.97 C560.15 29.97, 560.15 29.97, 560.15 29.97" stroke="#000000" stroke-width="4.5" fill="none"></path></g></g><g stroke-linecap="round"><g transform="translate(2268.5642300394684 557.5737864623468) rotate(0 1.9566841794712673 38.68256207803881)"><path d="M1.36 3.41 C1.26 24.83, -1.04 53.17, 3.25 73.96" stroke="#000000" stroke-width="4.5" fill="none" stroke-dasharray="1.5 10"></path></g><g transform="translate(2268.5642300394684 557.5737864623468) rotate(0 1.9566841794712673 38.68256207803881)"><path d="M5.9 76.63 L-7.83 62.95 L4.58 62.38 L5.86 76.49" stroke="none" stroke-width="0" fill="#000000" fill-rule="evenodd"></path><path d="M4.27 76.51 C0.81 69.47, -4.83 67.7, -5.56 63.18 M-4.19 61.21 C-1.04 63.01, 1.7 61.89, 10.15 62.12 M10.17 57.2 C5.96 63.93, 3.16 71.03, 2.48 70.97 M3.25 73.96 C3.25 73.96, 3.25 73.96, 3.25 73.96" stroke="#000000" stroke-width="4.5" fill="none"></path></g></g><g transform="translate(934.4225320902943 10) rotate(0 227 77.5)"><text x="0" y="125" font-family="Cascadia, Segoe UI Emoji" font-size="128.8889227973091px" fill="#1864ab" text-anchor="start" style="white-space: pre;" direction="ltr">list()</text></g><g stroke-linecap="round"><g transform="translate(1609.4228372660746 63.50034586588538) rotate(0 0 0)"><path d="M0 0 C0 0, 0 0, 0 0 M0 0 C0 0, 0 0, 0 0" stroke="#1864ab" stroke-width="4" fill="none"></path></g></g></svg>